# xmcd
#
# Track frame offsets:
#   150
#   16344
#   30286
#   45530
#   63458
#   81911
#   95672
#   111191
#   126147
#   141242
#   154954
#   178760
#   193446
#   207858
#   227604
#   244421
#   259206
#   278071
#   292428
#   304073
#
# Disc length: 4248 seconds
#
# Revision: 0
# Processed by: cddbd v1.5PL3 Copyright (c) Steve Scherf et al.
# Submitted via: Media_Universe 3.0
#
DISCID=30109614
DTITLE=Tim McGraw - All I Want and Mixed
DYEAR=1900
DGENRE=Country
TTITLE0=All I Want Is A Life
TTITLE1=She Never Lets It Go To Her Heart
TTITLE2=Can't Really Be Gone
TTITLE3=Maybe We Should Just Sleep On It
TTITLE4=I Didn't Ask And Sh Didn't Say
TTITLE5=Renegade
TTITLE6=I Like It, I Love It
TTITLE7=The Great Divide
TTITLE8=You Got The Wrong Man
TTITLE9=Don't Mention Memphis
TTITLE10=When She Wakes Up And Finds Me Gone
TTITLE11=That's Just Me
TTITLE12=Let's Go To Vegas
TTITLE13=Burn
TTITLE14=Stand Beside Me
TTITLE15=All We Ever Find
TTITLE16=Single Girl Blues
TTITLE17=Just Shoot Me
TTITLE18=Men Don't Dance Anymore
TTITLE19=How Wrong Is It
EXTD=
EXTT0=
EXTT1=
EXTT2=
EXTT3=
EXTT4=
EXTT5=
EXTT6=
EXTT7=
EXTT8=
EXTT9=
EXTT10=
EXTT11=
EXTT12=
EXTT13=
EXTT14=
EXTT15=
EXTT16=
EXTT17=
EXTT18=
EXTT19=
PLAYORDER=
